<svg width="463" height="114" viewBox="0 0 463 114" fill="none" xmlns="http://www.w3.org/2000/svg">
<path d="M15.996 79.856C5.332 72.168 0 61.3387 0 47.368C0 33.3147 3.88533 21.9067 11.656 13.144C19.5093 4.38133 31.62 0 47.988 0C54.8493 0 61.008 1.116 66.464 3.348C72.0027 5.58 76.3427 8.34934 79.484 11.656C82.708 14.88 85.3947 18.6 87.544 22.816C91.1813 29.8427 93 36.6213 93 43.152C93 49.6 92.008 55.8 90.024 61.752C88.04 67.6213 84.94 72.9533 80.724 77.748C76.5907 82.46 71.7133 85.6013 66.092 87.172C60.4707 88.7427 57.66 89.652 57.66 89.9C57.66 90.8093 58.4453 91.5947 60.016 92.256C61.0907 92.752 63.86 93.992 68.324 95.976C72.788 97.96 75.5573 99.1587 76.632 99.572C77.7893 99.9853 79.3187 100.564 81.22 101.308C83.1213 102.052 84.692 102.589 85.932 102.92C87.2547 103.333 88.7013 103.747 90.272 104.16C93.0827 104.904 95.6867 105.276 98.084 105.276C100.481 105.276 102.383 104.904 103.788 104.16C105.193 103.499 106.268 102.837 107.012 102.176C107.839 101.515 108.541 101.184 109.12 101.184C109.699 101.184 110.112 101.349 110.36 101.68C110.691 102.093 110.856 102.424 110.856 102.672C110.856 105.565 108.624 108.087 104.16 110.236C99.696 112.468 94.7773 113.584 89.404 113.584C84.1133 113.584 76.7147 111.476 67.208 107.26C57.784 103.044 48.8973 98.828 40.548 94.612C32.2813 90.396 26.908 88.288 24.428 88.288C20.6253 88.288 17.8147 89.6107 15.996 92.256C14.1773 94.9013 13.268 97.96 13.268 101.432V103.664C13.268 105.813 12.524 106.888 11.036 106.888C10.2093 106.888 9.50667 106.351 8.928 105.276C8.34933 104.201 8.06 103.003 8.06 101.68C8.06 98.0427 8.88667 94.612 10.54 91.388C12.1933 88.164 13.9707 85.8907 15.872 84.568C17.7733 83.1627 18.724 82.3773 18.724 82.212C18.724 81.8813 17.8147 81.096 15.996 79.856ZM43.772 4.96C34.6787 4.96 26.9907 8.01867 20.708 14.136C14.4253 20.2533 11.284 29.0987 11.284 40.672C11.284 52.2453 14.3427 62.248 20.46 70.68C23.684 75.2267 28.272 78.9467 34.224 81.84C40.2587 84.6507 45.8387 86.056 50.964 86.056C56.0893 86.056 61.7107 84.4853 67.828 81.344C71.3 79.5253 74.7307 75.9707 78.12 70.68C81.592 65.3067 83.328 59.1893 83.328 52.328C83.328 39.0187 79.484 27.8173 71.796 18.724C64.108 9.548 54.7667 4.96 43.772 4.96Z" fill="black"/>
<path d="M107.616 70.184L107.74 47.864C107.74 46.2107 107.285 44.888 106.376 43.896C105.549 42.904 104.764 42.408 104.02 42.408H101.788C100.3 42.408 99.5555 41.8293 99.5555 40.672C99.5555 39.5147 100.341 38.7707 101.912 38.44C103.565 38.1093 105.549 37.944 107.864 37.944L114.932 37.324C116.337 37.324 117.164 37.6133 117.412 38.192C117.66 38.7707 117.784 40.2173 117.784 42.532C117.784 44.8467 117.66 48.0293 117.412 52.08C117.246 56.048 117.164 60.4707 117.164 65.348C117.164 72.6227 118.569 77.7893 121.38 80.848C124.19 83.824 127.373 85.312 130.928 85.312C136.218 85.312 140.062 84.196 142.46 81.964C144.857 79.732 146.056 75.8053 146.056 70.184L145.808 53.072C145.808 48.9387 145.477 46.1693 144.816 44.764C144.154 43.276 142.749 42.4493 140.6 42.284C138.45 42.036 137.376 41.4573 137.376 40.548C137.376 38.6467 141.013 37.696 148.288 37.696L152.752 37.076C153.992 37.076 154.777 37.2827 155.108 37.696C155.521 38.1093 155.728 38.7293 155.728 39.556C155.728 40.3 155.686 41.292 155.604 42.532C155.604 43.6893 155.562 45.26 155.48 47.244C155.48 49.228 155.438 51.46 155.356 53.94C155.19 58.9 155.108 64.4387 155.108 70.556C155.108 76.6733 155.356 80.6413 155.852 82.46C156.348 84.2787 157.257 85.188 158.58 85.188L161.804 85.064C163.788 85.064 164.78 85.56 164.78 86.552C164.78 87.544 164.49 88.164 163.912 88.412C163.333 88.66 162.217 88.784 160.564 88.784C158.91 88.784 156.389 89.032 153 89.528C149.693 89.9413 147.916 90.148 147.668 90.148C147.089 90.148 146.593 89.1147 146.18 87.048C145.849 84.8987 145.601 83.824 145.436 83.824C145.353 83.824 144.568 84.4853 143.08 85.808C141.592 87.1307 139.442 88.4533 136.632 89.776C133.904 91.0987 130.886 91.76 127.58 91.76C114.27 91.76 107.616 84.568 107.616 70.184Z" fill="black"/>
<path d="M195.925 91.884C188.65 91.884 182.45 89.652 177.325 85.188C172.282 80.724 169.761 74.276 169.761 65.844C169.761 57.3293 172.076 50.22 176.705 44.516C181.417 38.812 187.493 35.96 194.933 35.96C198.405 35.96 201.546 36.58 204.357 37.82C207.25 39.06 209.482 40.5893 211.053 42.408C212.624 44.144 213.946 46.004 215.021 47.988C216.84 51.3773 217.749 53.94 217.749 55.676C217.749 57.164 216.054 57.908 212.665 57.908H180.797C180.135 57.908 179.722 57.9907 179.557 58.156C179.474 58.2387 179.433 58.6107 179.433 59.272C179.433 67.0427 181.5 73.16 185.633 77.624C189.849 82.088 194.768 84.32 200.389 84.32C203.861 84.32 207.374 83.4107 210.929 81.592C214.566 79.6907 216.468 78.74 216.633 78.74C217.46 78.74 217.873 79.112 217.873 79.856C217.873 80.848 216.964 82.212 215.145 83.948C213.326 85.6013 211.59 86.9653 209.937 88.04C205.969 90.6027 201.298 91.884 195.925 91.884ZM181.789 54.932L203.613 54.188C204.77 54.188 205.473 54.1053 205.721 53.94C206.052 53.692 206.217 53.2787 206.217 52.7C206.217 50.22 205.06 47.3267 202.745 44.02C200.43 40.7133 197.206 39.06 193.073 39.06C188.939 39.06 185.757 40.7133 183.525 44.02C181.293 47.244 180.177 50.3027 180.177 53.196C180.177 54.3533 180.714 54.932 181.789 54.932Z" fill="black"/>
<path d="M260.879 39.804L261.375 47.244C261.375 48.6493 261.209 49.6 260.879 50.096C260.548 50.592 260.052 50.84 259.391 50.84C258.812 50.84 258.151 50.2613 257.407 49.104C256.745 47.864 255.96 46.5413 255.051 45.136C254.224 43.7307 252.819 42.4493 250.835 41.292C248.933 40.052 246.743 39.432 244.263 39.432C241.783 39.432 239.757 40.052 238.187 41.292C236.616 42.4493 235.831 43.7307 235.831 45.136C235.831 46.5413 235.955 47.6987 236.203 48.608C236.451 49.4347 236.864 50.1787 237.443 50.84C238.104 51.5013 238.641 52.08 239.055 52.576C239.551 52.9893 240.336 53.444 241.411 53.94C242.485 54.436 243.271 54.808 243.767 55.056C244.345 55.2213 245.255 55.552 246.495 56.048C254.017 58.6933 258.853 61.2973 261.003 63.86C263.152 66.34 264.227 69.936 264.227 74.648C264.227 79.36 262.036 83.7 257.655 87.668C254.679 90.2307 250.587 91.512 245.379 91.512C241.824 91.512 237.856 90.644 233.475 88.908C232.235 88.412 231.491 88.164 231.243 88.164C231.077 88.0813 230.747 87.9573 230.251 87.792C229.837 87.6267 229.507 87.544 229.259 87.544C229.093 87.4613 228.845 87.3373 228.515 87.172C228.184 87.0067 227.936 86.8827 227.771 86.8C227.688 86.6347 227.564 86.428 227.399 86.18C227.151 85.7667 227.027 85.1053 227.027 84.196V73.408C227.027 72.4987 227.192 71.7547 227.523 71.176C227.936 70.5147 228.473 70.184 229.135 70.184C229.796 70.184 230.251 70.3907 230.499 70.804C230.829 71.1347 231.119 71.8787 231.367 73.036C231.615 74.1933 231.863 75.02 232.111 75.516C235.169 83.1213 239.468 86.924 245.007 86.924C247.569 86.924 250.008 86.2627 252.323 84.94C254.637 83.5347 255.795 81.3853 255.795 78.492C255.795 75.516 254.844 73.1187 252.943 71.3C251.041 69.4813 248.727 68.076 245.999 67.084C243.271 66.0093 240.543 64.9347 237.815 63.86C235.087 62.7027 232.772 61.0493 230.871 58.9C228.969 56.668 228.019 53.8987 228.019 50.592C228.019 45.9627 229.879 42.2427 233.599 39.432C237.319 36.6213 241.411 35.216 245.875 35.216C250.339 35.216 253.728 35.588 256.043 36.332C258.357 36.9933 259.721 37.6133 260.135 38.192C260.631 38.7707 260.879 39.308 260.879 39.804Z" fill="black"/>
<path d="M274.218 43.524L271.862 43.648C270.457 43.648 269.754 43.0693 269.754 41.912C269.754 41.0853 270.126 40.3827 270.87 39.804C274.012 37.7373 277.153 34.6373 280.294 30.504C281.617 28.6027 282.65 27.2387 283.394 26.412C284.221 25.5027 285.048 25.048 285.874 25.048C286.701 25.048 287.114 25.9987 287.114 27.9C287.114 27.9 286.949 30.256 286.618 34.968C286.618 36.1253 286.825 36.828 287.238 37.076C287.734 37.324 289.222 37.448 291.702 37.448H296.042C299.762 37.448 302.036 37.2413 302.862 36.828C304.35 36.084 305.26 35.712 305.59 35.712C306.417 35.712 306.83 36.1667 306.83 37.076C306.83 37.7373 306.293 39.06 305.218 41.044C304.144 42.9453 303.358 43.896 302.862 43.896C299.142 43.896 296.538 43.8133 295.05 43.648C293.562 43.4827 292.57 43.4 292.074 43.4C291.578 43.3173 291.124 43.276 290.71 43.276C290.38 43.1933 290.132 43.152 289.966 43.152L289.718 43.028C288.148 43.028 287.114 43.276 286.618 43.772C286.205 44.268 285.998 45.384 285.998 47.12L285.502 70.184C285.502 75.5573 286.164 79.3187 287.486 81.468C288.892 83.5347 291.785 84.568 296.166 84.568C297.902 84.568 299.804 84.196 301.87 83.452C304.02 82.6253 305.177 82.212 305.342 82.212C306.169 82.212 306.582 82.7493 306.582 83.824C306.582 84.8987 305.136 86.3453 302.242 88.164C299.432 89.9 296.373 90.768 293.066 90.768C281.906 90.768 276.326 85.932 276.326 76.26V74.4L276.822 45.508C276.822 44.6813 276.657 44.144 276.326 43.896C275.996 43.648 275.293 43.524 274.218 43.524Z" fill="black"/>
<rect x="341.83" y="12.792" width="119" height="88" rx="10" stroke="black" stroke-width="4"/>
<path d="M366.942 75.568H375.902C379.358 75.568 382.345 75.056 384.862 74.032C387.422 72.9653 389.534 71.5786 391.198 69.872C392.905 68.1226 394.163 66.16 394.974 63.984C395.785 61.7653 396.19 59.4826 396.19 57.136C396.19 54.7893 395.785 52.528 394.974 50.352C394.163 48.1333 392.905 46.1706 391.198 44.464C389.534 42.7146 387.422 41.328 384.862 40.304C382.345 39.2373 379.358 38.704 375.902 38.704H366.942V75.568ZM362.334 34.48H377.374C380.19 34.48 383.006 34.9493 385.822 35.888C388.681 36.8266 391.241 38.256 393.502 40.176C395.806 42.0533 397.662 44.4213 399.07 47.28C400.478 50.096 401.182 53.3813 401.182 57.136C401.182 60.9333 400.478 64.24 399.07 67.056C397.662 69.872 395.806 72.24 393.502 74.16C391.241 76.0373 388.681 77.4453 385.822 78.384C383.006 79.3226 380.19 79.792 377.374 79.792H362.334V34.48Z" fill="black"/>
<path d="M415.019 54.128H415.083H415.659L436.971 34.48H443.563L420.715 55.024L444.843 79.792H438.059L415.787 56.432H415.083H415.019V79.792H410.411V34.48H415.019V54.128Z" fill="black"/>
</svg>
